<mxfile host="app.diagrams.net" modified="2024-02-10T16:06:22.782Z" agent="Mozilla/5.0 (Windows NT 10.0; Win64; x64; rv:122.0) Gecko/20100101 Firefox/122.0" etag="fcTHd1xtC97PnFF-3xvn" version="23.1.0" type="device">
  <diagram name="Page-1" id="uTffTC_Pb67vYT820Rcr">
    <mxGraphModel dx="1434" dy="746" grid="1" gridSize="10" guides="1" tooltips="1" connect="1" arrows="1" fold="1" page="1" pageScale="1" pageWidth="827" pageHeight="1169" math="0" shadow="0">
      <root>
        <mxCell id="0" />
        <mxCell id="1" parent="0" />
        <mxCell id="sebpEP_0SxB61B78427p-1" value="" style="rounded=0;whiteSpace=wrap;html=1;fillColor=#EBF3FF;" vertex="1" parent="1">
          <mxGeometry width="780" height="120" as="geometry" />
        </mxCell>
        <mxCell id="sebpEP_0SxB61B78427p-2" value="Adherents" style="rounded=1;whiteSpace=wrap;html=1;" vertex="1" parent="1">
          <mxGeometry x="30" y="30" width="120" height="60" as="geometry" />
        </mxCell>
        <mxCell id="sebpEP_0SxB61B78427p-3" value="Materiel" style="rounded=1;whiteSpace=wrap;html=1;" vertex="1" parent="1">
          <mxGeometry x="180" y="30" width="120" height="60" as="geometry" />
        </mxCell>
        <mxCell id="sebpEP_0SxB61B78427p-4" value="Gestion Empruns" style="rounded=1;whiteSpace=wrap;html=1;" vertex="1" parent="1">
          <mxGeometry x="330" y="30" width="120" height="60" as="geometry" />
        </mxCell>
        <mxCell id="sebpEP_0SxB61B78427p-5" value="Reparations" style="rounded=1;whiteSpace=wrap;html=1;" vertex="1" parent="1">
          <mxGeometry x="480" y="30" width="120" height="60" as="geometry" />
        </mxCell>
        <mxCell id="sebpEP_0SxB61B78427p-6" value="Historique" style="rounded=1;whiteSpace=wrap;html=1;" vertex="1" parent="1">
          <mxGeometry x="630" y="30" width="120" height="60" as="geometry" />
        </mxCell>
        <mxCell id="sebpEP_0SxB61B78427p-7" value="" style="rounded=0;whiteSpace=wrap;html=1;fillColor=#E2E9F5;" vertex="1" parent="1">
          <mxGeometry y="120" width="780" height="440" as="geometry" />
        </mxCell>
        <mxCell id="sebpEP_0SxB61B78427p-8" value="" style="rounded=0;whiteSpace=wrap;html=1;fillColor=#EBF3FF;" vertex="1" parent="1">
          <mxGeometry y="560" width="780" height="50" as="geometry" />
        </mxCell>
        <mxCell id="sebpEP_0SxB61B78427p-9" value="Report bug" style="rounded=1;whiteSpace=wrap;html=1;" vertex="1" parent="1">
          <mxGeometry x="340" y="580" width="90" height="20" as="geometry" />
        </mxCell>
        <mxCell id="sebpEP_0SxB61B78427p-153" value="" style="shape=table;startSize=0;container=1;collapsible=0;childLayout=tableLayout;" vertex="1" parent="1">
          <mxGeometry x="10" y="130" width="760" height="20" as="geometry" />
        </mxCell>
        <mxCell id="sebpEP_0SxB61B78427p-154" value="" style="shape=tableRow;horizontal=0;startSize=0;swimlaneHead=0;swimlaneBody=0;strokeColor=inherit;top=0;left=0;bottom=0;right=0;collapsible=0;dropTarget=0;fillColor=none;points=[[0,0.5],[1,0.5]];portConstraint=eastwest;" vertex="1" parent="sebpEP_0SxB61B78427p-153">
          <mxGeometry width="760" height="20" as="geometry" />
        </mxCell>
        <mxCell id="sebpEP_0SxB61B78427p-155" value="id" style="shape=partialRectangle;html=1;whiteSpace=wrap;connectable=0;strokeColor=inherit;overflow=hidden;fillColor=none;top=0;left=0;bottom=0;right=0;pointerEvents=1;" vertex="1" parent="sebpEP_0SxB61B78427p-154">
          <mxGeometry width="50" height="20" as="geometry">
            <mxRectangle width="50" height="20" as="alternateBounds" />
          </mxGeometry>
        </mxCell>
        <mxCell id="sebpEP_0SxB61B78427p-156" value="Nom" style="shape=partialRectangle;html=1;whiteSpace=wrap;connectable=0;strokeColor=inherit;overflow=hidden;fillColor=none;top=0;left=0;bottom=0;right=0;pointerEvents=1;" vertex="1" parent="sebpEP_0SxB61B78427p-154">
          <mxGeometry x="50" width="210" height="20" as="geometry">
            <mxRectangle width="210" height="20" as="alternateBounds" />
          </mxGeometry>
        </mxCell>
        <mxCell id="sebpEP_0SxB61B78427p-157" value="Categorie" style="shape=partialRectangle;html=1;whiteSpace=wrap;connectable=0;strokeColor=inherit;overflow=hidden;fillColor=none;top=0;left=0;bottom=0;right=0;pointerEvents=1;" vertex="1" parent="sebpEP_0SxB61B78427p-154">
          <mxGeometry x="260" width="130" height="20" as="geometry">
            <mxRectangle width="130" height="20" as="alternateBounds" />
          </mxGeometry>
        </mxCell>
        <mxCell id="sebpEP_0SxB61B78427p-158" value="photo" style="shape=partialRectangle;html=1;whiteSpace=wrap;connectable=0;strokeColor=inherit;overflow=hidden;fillColor=none;top=0;left=0;bottom=0;right=0;pointerEvents=1;" vertex="1" parent="sebpEP_0SxB61B78427p-154">
          <mxGeometry x="390" width="310" height="20" as="geometry">
            <mxRectangle width="310" height="20" as="alternateBounds" />
          </mxGeometry>
        </mxCell>
        <mxCell id="sebpEP_0SxB61B78427p-159" value="A reparer" style="shape=partialRectangle;html=1;whiteSpace=wrap;connectable=0;strokeColor=inherit;overflow=hidden;fillColor=none;top=0;left=0;bottom=0;right=0;pointerEvents=1;" vertex="1" parent="sebpEP_0SxB61B78427p-154">
          <mxGeometry x="700" width="60" height="20" as="geometry">
            <mxRectangle width="60" height="20" as="alternateBounds" />
          </mxGeometry>
        </mxCell>
        <mxCell id="sebpEP_0SxB61B78427p-175" value="" style="shape=table;startSize=0;container=1;collapsible=0;childLayout=tableLayout;" vertex="1" parent="1">
          <mxGeometry x="10" y="160" width="760" height="80" as="geometry" />
        </mxCell>
        <mxCell id="sebpEP_0SxB61B78427p-176" value="" style="shape=tableRow;horizontal=0;startSize=0;swimlaneHead=0;swimlaneBody=0;strokeColor=inherit;top=0;left=0;bottom=0;right=0;collapsible=0;dropTarget=0;fillColor=none;points=[[0,0.5],[1,0.5]];portConstraint=eastwest;" vertex="1" parent="sebpEP_0SxB61B78427p-175">
          <mxGeometry width="760" height="80" as="geometry" />
        </mxCell>
        <mxCell id="sebpEP_0SxB61B78427p-177" value="6" style="shape=partialRectangle;html=1;whiteSpace=wrap;connectable=0;strokeColor=inherit;overflow=hidden;fillColor=none;top=0;left=0;bottom=0;right=0;pointerEvents=1;" vertex="1" parent="sebpEP_0SxB61B78427p-176">
          <mxGeometry width="50" height="80" as="geometry">
            <mxRectangle width="50" height="80" as="alternateBounds" />
          </mxGeometry>
        </mxCell>
        <mxCell id="sebpEP_0SxB61B78427p-178" value="Planche vite" style="shape=partialRectangle;html=1;whiteSpace=wrap;connectable=0;strokeColor=inherit;overflow=hidden;fillColor=none;top=0;left=0;bottom=0;right=0;pointerEvents=1;" vertex="1" parent="sebpEP_0SxB61B78427p-176">
          <mxGeometry x="50" width="210" height="80" as="geometry">
            <mxRectangle width="210" height="80" as="alternateBounds" />
          </mxGeometry>
        </mxCell>
        <mxCell id="sebpEP_0SxB61B78427p-179" value="Planche a voile" style="shape=partialRectangle;html=1;whiteSpace=wrap;connectable=0;strokeColor=inherit;overflow=hidden;fillColor=none;top=0;left=0;bottom=0;right=0;pointerEvents=1;" vertex="1" parent="sebpEP_0SxB61B78427p-176">
          <mxGeometry x="260" width="130" height="80" as="geometry">
            <mxRectangle width="130" height="80" as="alternateBounds" />
          </mxGeometry>
        </mxCell>
        <mxCell id="sebpEP_0SxB61B78427p-180" value="photo" style="shape=partialRectangle;html=1;whiteSpace=wrap;connectable=0;strokeColor=inherit;overflow=hidden;fillColor=none;top=0;left=0;bottom=0;right=0;pointerEvents=1;" vertex="1" parent="sebpEP_0SxB61B78427p-176">
          <mxGeometry x="390" width="310" height="80" as="geometry">
            <mxRectangle width="310" height="80" as="alternateBounds" />
          </mxGeometry>
        </mxCell>
        <mxCell id="sebpEP_0SxB61B78427p-181" value="V" style="shape=partialRectangle;html=1;whiteSpace=wrap;connectable=0;strokeColor=inherit;overflow=hidden;fillColor=none;top=0;left=0;bottom=0;right=0;pointerEvents=1;" vertex="1" parent="sebpEP_0SxB61B78427p-176">
          <mxGeometry x="700" width="60" height="80" as="geometry">
            <mxRectangle width="60" height="80" as="alternateBounds" />
          </mxGeometry>
        </mxCell>
        <mxCell id="sebpEP_0SxB61B78427p-182" value="" style="shape=table;startSize=0;container=1;collapsible=0;childLayout=tableLayout;" vertex="1" parent="1">
          <mxGeometry x="10" y="240" width="760" height="80" as="geometry" />
        </mxCell>
        <mxCell id="sebpEP_0SxB61B78427p-183" value="" style="shape=tableRow;horizontal=0;startSize=0;swimlaneHead=0;swimlaneBody=0;strokeColor=inherit;top=0;left=0;bottom=0;right=0;collapsible=0;dropTarget=0;fillColor=none;points=[[0,0.5],[1,0.5]];portConstraint=eastwest;" vertex="1" parent="sebpEP_0SxB61B78427p-182">
          <mxGeometry width="760" height="80" as="geometry" />
        </mxCell>
        <mxCell id="sebpEP_0SxB61B78427p-184" value="19" style="shape=partialRectangle;html=1;whiteSpace=wrap;connectable=0;strokeColor=inherit;overflow=hidden;fillColor=none;top=0;left=0;bottom=0;right=0;pointerEvents=1;" vertex="1" parent="sebpEP_0SxB61B78427p-183">
          <mxGeometry width="50" height="80" as="geometry">
            <mxRectangle width="50" height="80" as="alternateBounds" />
          </mxGeometry>
        </mxCell>
        <mxCell id="sebpEP_0SxB61B78427p-185" value="Voile vite" style="shape=partialRectangle;html=1;whiteSpace=wrap;connectable=0;strokeColor=inherit;overflow=hidden;fillColor=none;top=0;left=0;bottom=0;right=0;pointerEvents=1;" vertex="1" parent="sebpEP_0SxB61B78427p-183">
          <mxGeometry x="50" width="210" height="80" as="geometry">
            <mxRectangle width="210" height="80" as="alternateBounds" />
          </mxGeometry>
        </mxCell>
        <mxCell id="sebpEP_0SxB61B78427p-186" value="Voile windsurf" style="shape=partialRectangle;html=1;whiteSpace=wrap;connectable=0;strokeColor=inherit;overflow=hidden;fillColor=none;top=0;left=0;bottom=0;right=0;pointerEvents=1;" vertex="1" parent="sebpEP_0SxB61B78427p-183">
          <mxGeometry x="260" width="130" height="80" as="geometry">
            <mxRectangle width="130" height="80" as="alternateBounds" />
          </mxGeometry>
        </mxCell>
        <mxCell id="sebpEP_0SxB61B78427p-187" value="photo" style="shape=partialRectangle;html=1;whiteSpace=wrap;connectable=0;strokeColor=inherit;overflow=hidden;fillColor=none;top=0;left=0;bottom=0;right=0;pointerEvents=1;" vertex="1" parent="sebpEP_0SxB61B78427p-183">
          <mxGeometry x="390" width="310" height="80" as="geometry">
            <mxRectangle width="310" height="80" as="alternateBounds" />
          </mxGeometry>
        </mxCell>
        <mxCell id="sebpEP_0SxB61B78427p-188" value="V" style="shape=partialRectangle;html=1;whiteSpace=wrap;connectable=0;strokeColor=inherit;overflow=hidden;fillColor=none;top=0;left=0;bottom=0;right=0;pointerEvents=1;" vertex="1" parent="sebpEP_0SxB61B78427p-183">
          <mxGeometry x="700" width="60" height="80" as="geometry">
            <mxRectangle width="60" height="80" as="alternateBounds" />
          </mxGeometry>
        </mxCell>
      </root>
    </mxGraphModel>
  </diagram>
</mxfile>
